<svg width="223" height="223" viewBox="0 0 223 223" xmlns="http://www.w3.org/2000/svg" xmlns:xlink="http://www.w3.org/1999/xlink" overflow="hidden"><defs><clipPath id="clip-path"><rect x="0" y="0" width="223" height="223" fill="none"/></clipPath></defs><g id="Repetir_cuadrícula_1" clip-path="url(#clip-path)"><g transform="translate(-55 -349)"><circle cx="5" cy="5" r="5" id="Elipse_1" fill="#FFFFFF" transform="translate(55 349)"/></g><g transform="translate(-25 -349)"><circle cx="5" cy="5" r="5" id="Elipse_1-2" fill="#FFFFFF" transform="translate(55 349)"/></g><g transform="translate(5 -349)"><circle cx="5" cy="5" r="5" id="Elipse_1-3" fill="#FFFFFF" transform="translate(55 349)"/></g><g transform="translate(35 -349)"><circle cx="5" cy="5" r="5" id="Elipse_1-4" fill="#FFFFFF" transform="translate(55 349)"/></g><g transform="translate(65 -349)"><circle cx="5" cy="5" r="5" id="Elipse_1-5" fill="#FFFFFF" transform="translate(55 349)"/></g><g transform="translate(95 -349)"><circle cx="5" cy="5" r="5" id="Elipse_1-6" fill="#FFFFFF" transform="translate(55 349)"/></g><g transform="translate(125 -349)"><circle cx="5" cy="5" r="5" id="Elipse_1-7" fill="#FFFFFF" transform="translate(55 349)"/></g><g transform="translate(155 -349)"><circle cx="5" cy="5" r="5" id="Elipse_1-8" fill="#FFFFFF" transform="translate(55 349)"/></g><g transform="translate(-55 -319)"><circle cx="5" cy="5" r="5" id="Elipse_1-9" fill="#FFFFFF" transform="translate(55 349)"/></g><g transform="translate(-25 -319)"><circle cx="5" cy="5" r="5" id="Elipse_1-10" fill="#FFFFFF" transform="translate(55 349)"/></g><g transform="translate(5 -319)"><circle cx="5" cy="5" r="5" id="Elipse_1-11" fill="#FFFFFF" transform="translate(55 349)"/></g><g transform="translate(35 -319)"><circle cx="5" cy="5" r="5" id="Elipse_1-12" fill="#FFFFFF" transform="translate(55 349)"/></g><g transform="translate(65 -319)"><circle cx="5" cy="5" r="5" id="Elipse_1-13" fill="#FFFFFF" transform="translate(55 349)"/></g><g transform="translate(95 -319)"><circle cx="5" cy="5" r="5" id="Elipse_1-14" fill="#FFFFFF" transform="translate(55 349)"/></g><g transform="translate(125 -319)"><circle cx="5" cy="5" r="5" id="Elipse_1-15" fill="#FFFFFF" transform="translate(55 349)"/></g><g transform="translate(155 -319)"><circle cx="5" cy="5" r="5" id="Elipse_1-16" fill="#FFFFFF" transform="translate(55 349)"/></g><g transform="translate(-55 -289)"><circle cx="5" cy="5" r="5" id="Elipse_1-17" fill="#FFFFFF" transform="translate(55 349)"/></g><g transform="translate(-25 -289)"><circle cx="5" cy="5" r="5" id="Elipse_1-18" fill="#FFFFFF" transform="translate(55 349)"/></g><g transform="translate(5 -289)"><circle cx="5" cy="5" r="5" id="Elipse_1-19" fill="#FFFFFF" transform="translate(55 349)"/></g><g transform="translate(35 -289)"><circle cx="5" cy="5" r="5" id="Elipse_1-20" fill="#FFFFFF" transform="translate(55 349)"/></g><g transform="translate(65 -289)"><circle cx="5" cy="5" r="5" id="Elipse_1-21" fill="#FFFFFF" transform="translate(55 349)"/></g><g transform="translate(95 -289)"><circle cx="5" cy="5" r="5" id="Elipse_1-22" fill="#FFFFFF" transform="translate(55 349)"/></g><g transform="translate(125 -289)"><circle cx="5" cy="5" r="5" id="Elipse_1-23" fill="#FFFFFF" transform="translate(55 349)"/></g><g transform="translate(155 -289)"><circle cx="5" cy="5" r="5" id="Elipse_1-24" fill="#FFFFFF" transform="translate(55 349)"/></g><g transform="translate(-55 -259)"><circle cx="5" cy="5" r="5" id="Elipse_1-25" fill="#FFFFFF" transform="translate(55 349)"/></g><g transform="translate(-25 -259)"><circle cx="5" cy="5" r="5" id="Elipse_1-26" fill="#FFFFFF" transform="translate(55 349)"/></g><g transform="translate(5 -259)"><circle cx="5" cy="5" r="5" id="Elipse_1-27" fill="#FFFFFF" transform="translate(55 349)"/></g><g transform="translate(35 -259)"><circle cx="5" cy="5" r="5" id="Elipse_1-28" fill="#FFFFFF" transform="translate(55 349)"/></g><g transform="translate(65 -259)"><circle cx="5" cy="5" r="5" id="Elipse_1-29" fill="#FFFFFF" transform="translate(55 349)"/></g><g transform="translate(95 -259)"><circle cx="5" cy="5" r="5" id="Elipse_1-30" fill="#FFFFFF" transform="translate(55 349)"/></g><g transform="translate(125 -259)"><circle cx="5" cy="5" r="5" id="Elipse_1-31" fill="#FFFFFF" transform="translate(55 349)"/></g><g transform="translate(155 -259)"><circle cx="5" cy="5" r="5" id="Elipse_1-32" fill="#FFFFFF" transform="translate(55 349)"/></g><g transform="translate(-55 -229)"><circle cx="5" cy="5" r="5" id="Elipse_1-33" fill="#FFFFFF" transform="translate(55 349)"/></g><g transform="translate(-25 -229)"><circle cx="5" cy="5" r="5" id="Elipse_1-34" fill="#FFFFFF" transform="translate(55 349)"/></g><g transform="translate(5 -229)"><circle cx="5" cy="5" r="5" id="Elipse_1-35" fill="#FFFFFF" transform="translate(55 349)"/></g><g transform="translate(35 -229)"><circle cx="5" cy="5" r="5" id="Elipse_1-36" fill="#FFFFFF" transform="translate(55 349)"/></g><g transform="translate(65 -229)"><circle cx="5" cy="5" r="5" id="Elipse_1-37" fill="#FFFFFF" transform="translate(55 349)"/></g><g transform="translate(95 -229)"><circle cx="5" cy="5" r="5" id="Elipse_1-38" fill="#FFFFFF" transform="translate(55 349)"/></g><g transform="translate(125 -229)"><circle cx="5" cy="5" r="5" id="Elipse_1-39" fill="#FFFFFF" transform="translate(55 349)"/></g><g transform="translate(155 -229)"><circle cx="5" cy="5" r="5" id="Elipse_1-40" fill="#FFFFFF" transform="translate(55 349)"/></g><g transform="translate(-55 -199)"><circle cx="5" cy="5" r="5" id="Elipse_1-41" fill="#FFFFFF" transform="translate(55 349)"/></g><g transform="translate(-25 -199)"><circle cx="5" cy="5" r="5" id="Elipse_1-42" fill="#FFFFFF" transform="translate(55 349)"/></g><g transform="translate(5 -199)"><circle cx="5" cy="5" r="5" id="Elipse_1-43" fill="#FFFFFF" transform="translate(55 349)"/></g><g transform="translate(35 -199)"><circle cx="5" cy="5" r="5" id="Elipse_1-44" fill="#FFFFFF" transform="translate(55 349)"/></g><g transform="translate(65 -199)"><circle cx="5" cy="5" r="5" id="Elipse_1-45" fill="#FFFFFF" transform="translate(55 349)"/></g><g transform="translate(95 -199)"><circle cx="5" cy="5" r="5" id="Elipse_1-46" fill="#FFFFFF" transform="translate(55 349)"/></g><g transform="translate(125 -199)"><circle cx="5" cy="5" r="5" id="Elipse_1-47" fill="#FFFFFF" transform="translate(55 349)"/></g><g transform="translate(155 -199)"><circle cx="5" cy="5" r="5" id="Elipse_1-48" fill="#FFFFFF" transform="translate(55 349)"/></g><g transform="translate(-55 -169)"><circle cx="5" cy="5" r="5" id="Elipse_1-49" fill="#FFFFFF" transform="translate(55 349)"/></g><g transform="translate(-25 -169)"><circle cx="5" cy="5" r="5" id="Elipse_1-50" fill="#FFFFFF" transform="translate(55 349)"/></g><g transform="translate(5 -169)"><circle cx="5" cy="5" r="5" id="Elipse_1-51" fill="#FFFFFF" transform="translate(55 349)"/></g><g transform="translate(35 -169)"><circle cx="5" cy="5" r="5" id="Elipse_1-52" fill="#FFFFFF" transform="translate(55 349)"/></g><g transform="translate(65 -169)"><circle cx="5" cy="5" r="5" id="Elipse_1-53" fill="#FFFFFF" transform="translate(55 349)"/></g><g transform="translate(95 -169)"><circle cx="5" cy="5" r="5" id="Elipse_1-54" fill="#FFFFFF" transform="translate(55 349)"/></g><g transform="translate(125 -169)"><circle cx="5" cy="5" r="5" id="Elipse_1-55" fill="#FFFFFF" transform="translate(55 349)"/></g><g transform="translate(155 -169)"><circle cx="5" cy="5" r="5" id="Elipse_1-56" fill="#FFFFFF" transform="translate(55 349)"/></g><g transform="translate(-55 -139)"><circle cx="5" cy="5" r="5" id="Elipse_1-57" fill="#FFFFFF" transform="translate(55 349)"/></g><g transform="translate(-25 -139)"><circle cx="5" cy="5" r="5" id="Elipse_1-58" fill="#FFFFFF" transform="translate(55 349)"/></g><g transform="translate(5 -139)"><circle cx="5" cy="5" r="5" id="Elipse_1-59" fill="#FFFFFF" transform="translate(55 349)"/></g><g transform="translate(35 -139)"><circle cx="5" cy="5" r="5" id="Elipse_1-60" fill="#FFFFFF" transform="translate(55 349)"/></g><g transform="translate(65 -139)"><circle cx="5" cy="5" r="5" id="Elipse_1-61" fill="#FFFFFF" transform="translate(55 349)"/></g><g transform="translate(95 -139)"><circle cx="5" cy="5" r="5" id="Elipse_1-62" fill="#FFFFFF" transform="translate(55 349)"/></g><g transform="translate(125 -139)"><circle cx="5" cy="5" r="5" id="Elipse_1-63" fill="#FFFFFF" transform="translate(55 349)"/></g><g transform="translate(155 -139)"><circle cx="5" cy="5" r="5" id="Elipse_1-64" fill="#FFFFFF" transform="translate(55 349)"/></g></g></svg>